<?xml version="1.0" encoding="UTF-8" standalone="no"?>
<svg width="25px" height="21px" viewBox="0 0 25 21" version="1.1" xmlns="http://www.w3.org/2000/svg" xmlns:xlink="http://www.w3.org/1999/xlink" xmlns:sketch="http://www.bohemiancoding.com/sketch/ns">
    <g id="Page-1" stroke="none" stroke-width="1" fill="none" fill-rule="evenodd" sketch:type="MSPage">
        <g id="05_Dropzone-(CA)---uploaded" sketch:type="MSArtboardGroup" transform="translate(-313.000000, -645.000000)" fill="#707070">
            <g id="Issue-Attachments" sketch:type="MSLayerGroup" transform="translate(20.000000, 602.000000)">
                <g id="Drag-&amp;-drop-empty-2" transform="translate(293.000000, 43.000000)" sketch:type="MSShapeGroup">
                    <g id="cloud-upload-2">
                        <path d="M13.1247977,19.647941 L13.1247977,11.056306 L15.1737922,13.1306104 C15.4572957,13.4166636 15.9143727,13.4166636 16.1987027,13.1306104 C16.4813796,12.8437207 16.4813796,12.3803479 16.1987027,12.0942946 L12.9132033,8.76955267 C12.8784886,8.73525973 12.8404677,8.70514886 12.8016203,8.67838364 C12.7850895,8.66751027 12.7677321,8.66081897 12.7512013,8.65078201 C12.7272316,8.63656299 12.7024354,8.62234397 12.6768127,8.6114706 C12.6553226,8.60227005 12.633006,8.59725158 12.6115159,8.59139668 C12.5883728,8.58386897 12.5652297,8.57466842 12.54126,8.57048636 C12.5040657,8.56212223 12.4668713,8.5604494 12.429677,8.55877657 C12.418932,8.55877657 12.4106665,8.55543092 12.399095,8.55543092 C12.3875234,8.55543092 12.3784315,8.55877657 12.3668599,8.55877657 C12.3304921,8.5604494 12.2941243,8.56295864 12.2585831,8.57048636 C12.2329603,8.57550484 12.2089906,8.58554179 12.1841944,8.59306951 C12.1635309,8.59976082 12.1436939,8.60310647 12.1230304,8.6114706 C12.094928,8.62318038 12.0693052,8.63823582 12.0428559,8.65412766 C12.0279782,8.66249179 12.0131005,8.66834669 11.9982227,8.67754723 C11.9577222,8.70514886 11.9205279,8.73609614 11.8866397,8.77038908 L8.6019669,12.0942946 C8.46062844,12.2373212 8.38954594,12.4255142 8.38954594,12.6120343 C8.38954594,12.8002272 8.46062844,12.9875837 8.6019669,13.1306104 C8.88464383,13.4166636 9.34254739,13.4166636 9.62605086,13.1306104 L11.6750453,11.056306 L11.6750453,19.6487774 C11.6750453,20.0536013 11.9990493,20.3823116 12.3982684,20.3823116 C12.8007938,20.3814752 13.1247977,20.0536013 13.1247977,19.647941 L13.1247977,19.647941 Z" id="Shape"></path>
                        <path d="M20.7033496,6.28456945 C20.4793571,2.91466122 17.6980475,0.243157895 14.3125368,0.243157895 C12.1825413,0.243157895 10.2104151,1.33384053 9.03259462,3.0668884 C8.5573337,2.86113078 8.04239883,2.75239709 7.51919856,2.75239709 C5.51318422,2.75239709 3.85597008,4.29306995 3.64272257,6.26616837 C1.60199353,7.05741513 0.210098951,9.03804126 0.210098951,11.3239582 C0.210098951,14.3216626 2.6202917,16.7606431 5.58261364,16.7606431 L9.66324519,16.7606431 L9.66324519,15.5060235 L5.5817871,15.5060235 C3.29888163,15.5060235 1.44908349,13.6366403 1.44908349,11.3239582 C1.44908349,9.25049018 2.9492549,7.53918905 4.9098095,7.21215154 C4.87674787,7.04570534 4.85856397,6.87507708 4.85856397,6.69943033 C4.85856397,5.21145149 6.04960915,4.00701668 7.51919856,4.00701668 C8.29862646,4.00701668 8.99292066,4.35245528 9.47975315,4.89277812 C10.2145479,2.90964274 12.0982342,1.49777749 14.3125368,1.49777749 C17.1657553,1.49777749 19.4784163,3.83722483 19.4784163,6.72535914 C19.4784163,6.89096893 19.4718039,7.05657871 19.4544466,7.21884285 C21.3769803,7.57850046 22.8366512,9.27558257 22.8366512,11.3239582 C22.8366512,13.6366403 20.9868531,15.5060235 18.7039476,15.5060235 L15.0878319,15.5060235 L15.0878319,16.7606431 L18.7039476,16.7606431 C21.6662696,16.7606431 24.0764623,14.3216626 24.0764623,11.3239582 C24.0756358,9.07317061 22.7077109,7.09672654 20.7033496,6.28456945 L20.7033496,6.28456945 Z" id="Shape"></path>
                    </g>
                </g>
            </g>
        </g>
    </g>
</svg>